# xmcd CD database file
#
# Track frame offsets:
#	150
#	17837
#	35145
#	56357
#	68152
#	88062
#	107665
#	129837
#	148820
#	160505
#
# Disc length: 2345 seconds
#
# Revision: 0
# Processed by: cddbd v1.5.1PL0 Copyright (c) Steve Scherf et al.
# Submitted via: CDex 1.51
#
DISCID=8109270a
DTITLE=Ray Bryant - Live at Basin Street East
DYEAR=1996
DGENRE=Jazz
TTITLE0=What Is This Thing Called Love
TTITLE1=C-Jam Blues
TTITLE2=Sister Suzie
TTITLE3=This Is All I Ask
TTITLE4=Love For Sale
TTITLE5=Blowin' In The Wind
TTITLE6=Satin Doll
TTITLE7=Days Of Wine And Roses
TTITLE8=Blue Azurte
TTITLE9=All The Young Ladies
EXTD=YEAR: 1996
EXTT0=
EXTT1=
EXTT2=
EXTT3=
EXTT4=
EXTT5=
EXTT6=
EXTT7=
EXTT8=
EXTT9=
PLAYORDER=
